<svg width="27" height="27" viewBox="0 0 27 27" fill="none" xmlns="http://www.w3.org/2000/svg">
<path fill-rule="evenodd" clip-rule="evenodd" d="M13.5 8.71875C7.32713 8.71875 4.38975 11.4761 3.39525 12.6754C3.19837 12.9139 3.09375 13.2457 3.09375 13.6586V15.822C3.09375 16.6815 3.9735 17.3711 4.91512 17.0955L7.16512 16.4362C7.77037 16.2585 8.15625 15.7309 8.15625 15.1627V14.4698H9C8.15625 14.4698 8.15625 14.4686 8.15625 14.4675V14.427C8.1591 14.363 8.16738 14.2994 8.181 14.2369C8.20125 14.1322 8.23725 14.004 8.3025 13.8622C8.43413 13.5731 8.66925 13.2548 9.06413 12.9645C9.83588 12.3986 11.1724 11.9767 13.5 11.9767C15.8287 11.9767 17.1641 12.3986 17.9359 12.9645C18.3307 13.2536 18.5659 13.572 18.6975 13.8622C18.7715 14.0243 18.8194 14.1971 18.8393 14.3741L18.8426 14.4281V14.4506L18.8438 14.4596V14.4675C18.8438 14.4675 18.8438 14.4698 18 14.4698H18.8438V14.9062C18.8438 15.543 19.3286 16.119 20.0362 16.2225L22.2862 16.5521C23.1694 16.6826 23.9062 16.0211 23.9062 15.2359V12.8453C23.9062 12.3503 23.7521 11.961 23.4788 11.7169C22.3493 10.7066 19.3883 8.71875 13.5 8.71875ZM17.1562 14.5508V14.9062C17.1562 16.4216 18.297 17.6737 19.791 17.8931L22.041 18.2227C23.8792 18.4927 25.5938 17.1146 25.5938 15.2359V12.8453C25.5938 12.0206 25.335 11.1105 24.6038 10.4591C23.1683 9.17662 19.8101 7.03125 13.5 7.03125C6.73875 7.03125 3.35138 10.0845 2.09588 11.5988C1.58175 12.2198 1.40625 12.9712 1.40625 13.6586V15.822C1.40625 17.8841 3.4425 19.2859 5.38875 18.7144L7.63875 18.0551C8.9325 17.6771 9.84375 16.5128 9.84375 15.1639V14.5508C9.89856 14.4606 9.97272 14.3837 10.0609 14.3258C10.4141 14.067 11.3276 13.6642 13.5 13.6642C15.6712 13.6642 16.5859 14.067 16.9391 14.3258C17.0854 14.4326 17.1394 14.517 17.1562 14.5508Z" fill="white"/>
</svg>
