<svg width="27" height="27" viewBox="0 0 27 27" fill="none" xmlns="http://www.w3.org/2000/svg">
<path d="M13.5 18.5625C14.8422 18.5611 16.1291 18.0273 17.0782 17.0782C18.0273 16.1291 18.5611 14.8422 18.5625 13.5V6.75C18.5625 5.40734 18.0291 4.11967 17.0797 3.17027C16.1303 2.22087 14.8427 1.6875 13.5 1.6875C12.1573 1.6875 10.8697 2.22087 9.92027 3.17027C8.97087 4.11967 8.4375 5.40734 8.4375 6.75V13.5C8.4389 14.8422 8.97271 16.1291 9.92181 17.0782C10.8709 18.0273 12.1578 18.5611 13.5 18.5625ZM10.125 6.75C10.125 5.85489 10.4806 4.99645 11.1135 4.36351C11.7464 3.73058 12.6049 3.375 13.5 3.375C14.3951 3.375 15.2535 3.73058 15.8865 4.36351C16.5194 4.99645 16.875 5.85489 16.875 6.75V13.5C16.875 14.3951 16.5194 15.2535 15.8865 15.8865C15.2535 16.5194 14.3951 16.875 13.5 16.875C12.6049 16.875 11.7464 16.5194 11.1135 15.8865C10.4806 15.2535 10.125 14.3951 10.125 13.5V6.75ZM14.3438 21.8953V24.4688C14.3438 24.6925 14.2549 24.9071 14.0966 25.0654C13.9384 25.2236 13.7238 25.3125 13.5 25.3125C13.2762 25.3125 13.0616 25.2236 12.9034 25.0654C12.7451 24.9071 12.6562 24.6925 12.6562 24.4688V21.8953C10.576 21.6836 8.64819 20.7081 7.24554 19.1574C5.84289 17.6067 5.06507 15.591 5.0625 13.5C5.0625 13.2762 5.15139 13.0616 5.30963 12.9034C5.46786 12.7451 5.68247 12.6562 5.90625 12.6562C6.13003 12.6562 6.34464 12.7451 6.50287 12.9034C6.66111 13.0616 6.75 13.2762 6.75 13.5C6.75 15.2902 7.46116 17.0071 8.72703 18.273C9.9929 19.5388 11.7098 20.25 13.5 20.25C15.2902 20.25 17.0071 19.5388 18.273 18.273C19.5388 17.0071 20.25 15.2902 20.25 13.5C20.25 13.2762 20.3389 13.0616 20.4971 12.9034C20.6554 12.7451 20.87 12.6562 21.0938 12.6562C21.3175 12.6562 21.5321 12.7451 21.6904 12.9034C21.8486 13.0616 21.9375 13.2762 21.9375 13.5C21.9349 15.591 21.1571 17.6067 19.7545 19.1574C18.3518 20.7081 16.424 21.6836 14.3438 21.8953Z" fill="white"/>
</svg>
